<svg width="80" height="92" viewBox="0 0 80 92" fill="none" xmlns="http://www.w3.org/2000/svg">
<path d="M80 64.5788V4.83652C80 2.47172 78.0893 0.569214 75.7143 0.569214H17.1429C7.67857 0.569214 0 8.2148 0 17.6384V74.5359C0 83.9595 7.67857 91.6051 17.1429 91.6051H75.7143C78.0893 91.6051 80 89.7026 80 87.3378V84.4929C80 83.1594 79.375 81.9503 78.4107 81.168C77.6607 78.4298 77.6607 70.6242 78.4107 67.886C79.375 67.1214 80 65.9123 80 64.5788ZM22.8571 24.395C22.8571 23.8083 23.3393 23.3282 23.9286 23.3282H61.7857C62.375 23.3282 62.8571 23.8083 62.8571 24.395V27.9511C62.8571 28.5378 62.375 29.0179 61.7857 29.0179H23.9286C23.3393 29.0179 22.8571 28.5378 22.8571 27.9511V24.395ZM22.8571 35.7745C22.8571 35.1877 23.3393 34.7077 23.9286 34.7077H61.7857C62.375 34.7077 62.8571 35.1877 62.8571 35.7745V39.3306C62.8571 39.9173 62.375 40.3974 61.7857 40.3974H23.9286C23.3393 40.3974 22.8571 39.9173 22.8571 39.3306V35.7745ZM68.1071 80.2256H17.1429C13.9821 80.2256 11.4286 77.683 11.4286 74.5359C11.4286 71.4065 14 68.8461 17.1429 68.8461H68.1071C67.7679 71.8866 67.7679 77.1851 68.1071 80.2256Z" fill="white"/>
</svg>
