<svg width="91" height="92" viewBox="0 0 91 92" fill="none" xmlns="http://www.w3.org/2000/svg">
<path d="M79.7727 40.6843C84.5539 40.7163 86.1019 39.3632 86.698 38.4848C88.9169 35.583 85.4418 30.0212 77.2941 25.8018C80.4542 19.831 82.6517 14.479 83.7603 10.6347C84.3617 8.53127 83.9542 7.25639 83.8404 7.03413C83.5343 8.90467 81.0201 15.6507 75.2638 24.8238C70.8154 22.8288 65.2068 21.2499 58.5786 20.592C56.9879 17.5799 52.3722 9.23717 47.817 4.77952C44.8205 1.83679 42.422 0.757498 40.5501 0.606362H40.5412C38.0803 0.330759 36.5073 1.64654 35.6657 2.56225C32.6052 5.85704 31.3365 11.2517 31.2173 17.5106C29.929 15.3147 28.1621 13.1312 26.1461 12.9H26.114C22.4379 12.2812 19.283 18.0956 19.7083 27.354C12.8826 27.5994 7.07477 28.3764 3.16016 29.3508C1.39858 29.7865 0.274023 30.6435 0 31.0791C0.177937 31.0116 3.98579 29.4397 19.8507 29.4397C20.7795 38.8636 25.1443 47.5442 24.477 46.0097C22.7457 48.7479 17.6727 57.0978 16.0588 63.3815C15.0143 67.4498 15.2812 70.0689 16.0855 71.7634C17.0766 74.0305 19.0054 74.7364 20.2136 75.0102C24.6621 76.0255 30.0678 74.3647 35.6408 71.2513C34.3009 73.5344 33.1675 76.3206 34.0287 78.2463C35.3294 81.7402 41.9451 81.5642 49.7654 76.566C53.3562 82.2879 56.8954 86.8682 59.6765 89.7451C60.1331 90.237 60.6573 90.6615 61.2335 91.0058C62.1481 91.5766 62.7602 91.605 62.7602 91.605C61.294 90.4048 56.7103 84.8483 51.632 75.2858C55.5857 72.4408 59.7548 68.3744 63.6374 62.969C85.4916 63.7869 89.134 58.5665 89.9721 57.3432C92.5824 53.8083 90.5824 47.1299 79.7727 40.6843ZM65.9203 59.5711C70.157 52.866 71.3189 47.521 71.1606 43.1541C76.1179 46.2782 79.5556 49.8361 79.8902 53.6145C80.093 55.9136 78.4489 58.7923 65.9203 59.5711ZM38.5429 69.5017C40.2796 68.3939 42.018 67.1688 43.7387 65.8584C44.9273 68.2286 46.1586 70.4992 47.4042 72.6489C40.18 76.5358 35.155 74.9177 38.5429 69.5017ZM76.7994 39.0343C74.9684 38.0848 73.0342 37.1957 71.0378 36.3582C72.4519 34.2121 73.8013 32.0241 75.0841 29.7971C82.0343 34.0823 83.2514 39.253 76.7994 39.0343ZM49.6248 71.3349C48.6444 69.3168 47.6675 67.1564 46.6889 64.8556C54.3847 65.0814 57.7957 61.5252 57.9487 61.2265C57.9487 61.2389 53.5003 64.0074 46.8223 63.4046C52.2737 58.8546 57.3363 53.8587 61.9577 48.4688C63.5069 46.6539 64.9856 44.8101 66.3936 42.9371C66.3296 42.8856 66.1196 42.4037 63.4559 40.8034C54.2565 51.5199 45.2458 58.2286 39.8348 61.415C36.171 59.4271 32.5678 55.7642 29.9219 50.4815C26.3631 43.3834 24.5838 35.8319 24.3044 29.8434C26.493 30.0052 28.8009 30.2292 31.2173 30.5333C27.2511 37.0766 28.6568 41.7352 28.8205 41.9539C28.8205 41.9414 28.6514 36.7672 32.4041 31.3618C34.0033 40.6949 36.6702 49.8134 40.3526 58.538C40.518 58.4705 40.68 58.6945 43.6746 57.0711C38.9896 43.8297 37.6675 32.5034 37.6248 26.2339C41.1835 24.0255 46.1978 22.7132 52.1498 23.0671C60.0804 23.5418 67.5164 25.7787 72.8474 28.5276C71.5793 30.3839 70.1955 32.3084 68.6961 34.301C65.0075 27.5941 60.2868 26.4988 60.0021 26.5272C60.0217 26.5272 64.6107 29.029 67.3901 34.9233C60.7179 32.4764 53.853 30.5905 46.8668 29.285C44.5421 28.8546 42.2047 28.4958 39.8579 28.2093C39.8454 28.2893 39.5358 28.5382 39.4735 31.8241C53.3295 34.4006 63.7886 38.9169 69.2299 41.9965C69.3616 46.1839 67.9933 51.1732 64.7086 56.1447C60.3313 62.7788 54.6747 68.0988 49.6248 71.3349ZM54.5003 20.3039C46.5714 20.0088 41.4077 21.6251 37.6515 23.9792C38.0073 14.6799 41.4433 10.3983 44.4504 10.5938C47.4576 9.83994 54.2192 19.8683 54.5003 20.3039ZM31.2529 20.8552C31.3383 23.0084 31.5358 25.2328 31.824 27.4838C29.2351 27.3327 26.7101 27.2616 24.2795 27.2598C24.2653 27.8359 24.2582 18.1916 28.6692 18.4423H28.6852C29.7101 18.6361 30.5767 19.6656 31.2529 20.8552ZM26.2599 49.6601C29.9539 56.7191 33.9646 60.4299 37.8703 62.5174C29.5447 66.9199 24.0749 66.0735 22.7599 63.3193C22.7243 63.282 20.7795 60.5988 26.2599 49.6618V49.6601Z" fill="white"/>
</svg>
