<svg width="117" height="92" viewBox="0 0 117 92" fill="none" xmlns="http://www.w3.org/2000/svg">
<path d="M53.1157 33.8464C49.4055 31.9911 45.0451 31.7992 41.2806 33.1353C49.0695 33.1353 54.2983 36.8782 56.9253 42.3808C58.4931 45.6528 55.9842 49.3403 52.6078 49.3403C55.9769 49.3403 58.4964 53.0212 56.9253 56.2998C54.2334 61.9385 48.4934 65.5961 42.2458 65.5961C42.144 65.5961 24.9753 64.0212 24.9753 64.0212L12.8355 70.1171C11.12 70.975 9.21306 70.1864 8.46719 68.6948L0.34007 52.439C-0.42171 50.8641 0.136965 48.9845 1.60989 48.121L12.2262 42.0759L19.7438 28.5126C20.912 18.048 26.0931 8.44681 34.3218 1.69058C36.4042 -0.0365412 39.5029 0.268192 41.1791 2.35105C42.906 4.43391 42.6014 7.48179 40.5188 9.2091C38.2331 11.1393 36.2011 13.3238 34.5757 15.7114C38.5377 13.0189 43.1092 11.1903 48.1379 10.5807C50.8298 10.2251 53.2681 12.1045 53.5729 14.797C53.9285 17.4894 52.049 19.9278 49.3569 20.2325C46.4107 20.5881 43.6677 21.6041 41.2806 23.0265C46.0545 21.9821 52.0139 22.4528 57.3825 25.0583C59.8205 26.2774 60.8364 29.173 59.6172 31.6115C58.4492 33.9989 55.5032 35.0147 53.1157 33.8464ZM48.1379 46.5461C47.0205 44.2602 44.7855 42.8378 42.2456 42.8378C41.391 42.8352 40.5444 43.0017 39.7543 43.3276C38.9643 43.6535 38.2465 44.1324 37.6423 44.7367C37.038 45.341 36.5592 46.0588 36.2334 46.8488C35.9076 47.6389 35.7413 48.4855 35.7439 49.3401C35.7439 53.2572 38.9994 55.8424 42.2456 55.8424C44.7855 55.8424 47.0205 54.42 48.1379 52.1341C48.9507 50.4067 50.6267 49.3909 52.4045 49.3401C50.6267 49.2895 48.9507 48.2734 48.1379 46.5461ZM116.66 39.7391C117.422 41.3139 116.863 43.1935 115.39 44.0571L104.774 50.1022L97.2563 63.6655C96.0881 74.13 90.9071 83.7312 82.6783 90.4875C80.6798 92.1532 77.5963 91.9762 75.821 89.827C74.0942 87.7441 74.3987 84.6963 76.4815 82.9689C78.7672 81.0387 80.799 78.8542 82.4244 76.4666C78.4625 79.1591 73.8909 80.9877 68.8622 81.5974C67.0303 82.0555 63.8254 80.5658 63.4272 77.381C63.0717 74.6887 64.9511 72.2503 67.6432 71.9455C70.5895 71.5898 73.3324 70.574 75.7195 69.1516C70.9456 70.1959 64.9862 69.7252 59.6176 67.1197C57.1796 65.9006 56.1637 63.005 57.3829 60.5666C58.5509 58.179 61.4971 57.163 63.8846 58.3314C67.5948 60.1867 71.9552 60.3787 75.7197 59.0426C67.9308 59.0426 62.702 55.2997 60.075 49.7971C58.5072 46.5251 61.0161 42.8376 64.3925 42.8376C61.0234 42.8376 58.5039 39.1567 60.075 35.8781C62.6404 30.5044 68.1259 26.5758 75.0594 26.5818L92.025 28.1567L104.165 22.0607C105.885 21.2008 107.79 21.996 108.533 23.4831L116.66 39.7391ZM74.7543 36.3356C72.2145 36.3356 69.9794 37.758 68.8621 40.044C68.0493 41.7713 66.3732 42.7871 64.5954 42.838C66.3732 42.8888 68.0493 43.9048 68.8621 45.6319C69.9794 47.9179 72.2145 49.3403 74.7543 49.3403C75.6089 49.3428 76.4556 49.1763 77.2456 48.8505C78.0356 48.5246 78.7534 48.0457 79.3577 47.4414C79.9619 46.8371 80.4407 46.1192 80.7665 45.3292C81.0923 44.5392 81.2587 43.6925 81.256 42.838C81.256 38.9207 78.0005 36.3356 74.7543 36.3356Z" fill="white"/>
</svg>
