<svg width="81" height="92" viewBox="0 0 81 92" fill="none" xmlns="http://www.w3.org/2000/svg">
<path d="M40.4819 91.6051C39.2672 91.6051 38.0345 91.2799 36.9649 90.6657L25.7793 84.0722C24.1115 83.1328 24.9273 82.8077 25.4711 82.627C27.701 81.8503 28.1542 81.6877 30.5291 80.3329C30.7829 80.1883 31.1092 80.2425 31.363 80.4051L39.9561 85.4812C40.2643 85.6619 40.6994 85.6619 40.9895 85.4812L74.4736 66.2245C74.7818 66.0439 74.9812 65.6826 74.9812 65.3213V26.8078C74.9812 26.4285 74.7818 26.0853 74.4555 25.8866L40.9895 6.64791C40.6813 6.46726 40.2643 6.46726 39.9561 6.64791L6.50828 25.9046C6.18196 26.0853 5.98254 26.4466 5.98254 26.8259V65.3213C5.98254 65.6826 6.18196 66.0439 6.50828 66.2064L15.6815 71.4813C20.667 73.9561 23.7126 71.0477 23.7126 68.1032V30.0956C23.7126 29.5536 24.1477 29.1382 24.6916 29.1382H28.9338C29.4595 29.1382 29.9127 29.5536 29.9127 30.0956V68.1213C29.9127 74.7329 26.2869 78.5264 19.9962 78.5264C18.0564 78.5264 16.5336 78.5264 12.2914 76.4309L3.51701 71.3909C1.34154 70.1445 0 67.8142 0 65.3032V26.8078C0 24.315 1.34154 21.9666 3.51701 20.7201L36.9649 1.4634C39.0859 0.27115 41.8959 0.27115 43.9989 1.4634L77.483 20.7382C79.6585 21.9846 81 24.3149 81 26.8259V65.3213C81 67.8142 79.6585 70.1445 77.483 71.409L43.9989 90.6657C42.9293 91.2799 41.7146 91.6051 40.4819 91.6051ZM67.5121 53.6516C67.5121 46.4439 62.6173 44.5291 52.3382 43.1742C41.9322 41.8013 40.8807 41.0968 40.8807 38.6762C40.8807 36.671 41.769 33.9975 49.4738 33.9975C56.3447 33.9975 58.8827 35.4788 59.9342 40.1033C60.0248 40.5368 60.4237 40.862 60.8769 40.862H65.2278C65.4998 40.862 65.7536 40.7536 65.9349 40.5549C66.1162 40.3562 66.2068 40.0852 66.1887 39.8143C65.5179 31.8478 60.2061 28.1446 49.4738 28.1446C39.9199 28.1446 34.2274 32.1549 34.2274 38.893C34.2274 46.191 39.9017 48.2142 49.0568 49.1175C60.0248 50.1833 60.8769 51.791 60.8769 53.9407C60.8769 57.662 57.8675 59.2516 50.8153 59.2516C41.9503 59.2516 40.0105 57.0297 39.3579 52.64C39.2854 52.1704 38.8865 51.8271 38.397 51.8271H34.0642C33.5204 51.8271 33.1034 52.2607 33.1034 52.7845C33.1034 58.4026 36.1672 65.1045 50.8335 65.1045C61.4208 65.0864 67.5121 60.9136 67.5121 53.6516Z" fill="white"/>
</svg>
